# xmcd
#
# Track frame offsets:
#	150
#	21037
#	30836
#	53223
#	78257
#	99699
#	127014
#	160967
#	180976
#	186456
#	202908
#	227803
#
# Disc length: 3405 seconds
#
# Revision: 1
# Processed by: cddbd v1.5.2PL0 Copyright (c) Steve Scherf et al.
# Submitted via: audiograbber 1.83.01
#
DISCID=920d4b0c
DTITLE=Various Artist - Bedtime Beats CD2
DYEAR=2008
DGENRE=Jazz
TTITLE0=First Love - Joe Sample
TTITLE1=Peace - George Duke
TTITLE2=Mirror of the Heart - Lyle Mays
TTITLE3=Lost April - Bob James Trio
TTITLE4=Body and Soul - Joshua Redman
TTITLE5=The Green Hour - Bob James
TTITLE6=Last Night When We Were Young - Bob James with Dave Holland
TTITLE7=Visions - Joshua Redman
TTITLE8=My Bells - George Duke
TTITLE9=Imari's Lullaby - James Carter
TTITLE10=Quiet Now - Bob James Trio
TTITLE11=Long Life - Lyle Mays
EXTD=YEAR: 2008
EXTT0=
EXTT1=
EXTT2=
EXTT3=
EXTT4=
EXTT5=
EXTT6=
EXTT7=
EXTT8=
EXTT9=
EXTT10=
EXTT11=
PLAYORDER=
